<?xml version="1.0" encoding="utf-8"?>
<svg viewBox="49.688 -12.295 384 512" width="32px" height="32px" xmlns="http://www.w3.org/2000/svg">
  <path style="fill:#E2E5E7;" d="M 81.688 -12.295 C 64.088 -12.295 49.688 2.105 49.688 19.705 L 49.688 467.705 C 49.688 485.305 64.088 499.705 81.688 499.705 L 401.688 499.705 C 419.288 499.705 433.688 485.305 433.688 467.705 L 433.688 115.705 L 305.688 -12.295 L 81.688 -12.295 Z" transform="matrix(1, 0, 0, 1, 3.552713678800501e-15, 3.552713678800501e-15)"/>
  <path style="fill:#B0B7BD;" d="M 337.688 115.705 L 433.688 115.705 L 305.688 -12.295 L 305.688 83.705 C 305.688 101.305 320.088 115.705 337.688 115.705 Z" transform="matrix(1, 0, 0, 1, 3.552713678800501e-15, 3.552713678800501e-15)"/>
  <polygon style="fill:#CAD1D8;" points="433.688 211.705 337.688 115.705 433.688 115.705" transform="matrix(1, 0, 0, 1, 3.552713678800501e-15, 3.552713678800501e-15)"/>
</svg>