<svg xmlns="http://www.w3.org/2000/svg" width="23" height="22.147" viewBox="0 0 23 22.147">
  <g id="icon_menu2" transform="translate(0 -5.974)">
    <path id="패스_14" data-name="패스 14" d="M18.892,18.117,23,14.653l-4.108-3.464H14.259V5.977l-10.142,0L.009,9.435,4.117,12.9H9.772V16.26H4.119L0,19.689l4.119,3.429H9.772v3.575H7.429v1.429H11.2V7.406H12.83V28.121H16.6V26.692H14.259V18.117ZM9.772,21.689H4.636l-2.4-2,2.4-2H9.772Zm0-10.215H4.639L2.225,9.436,4.639,7.4H9.772Zm4.486,5.214V12.617H18.37l2.414,2.036L18.37,16.689Z" fill="#4b55ce"/>
  </g>
</svg>
