<svg xmlns="http://www.w3.org/2000/svg" xmlns:xlink="http://www.w3.org/1999/xlink" width="180" height="26.444" viewBox="0 0 180 26.444">
  <defs>
    <clipPath id="clip-path">
      <rect id="사각형_35" data-name="사각형 35" width="180" height="26.444" fill="none"/>
    </clipPath>
  </defs>
  <g id="그룹_39" data-name="그룹 39" clip-path="url(#clip-path)">
    <path id="패스_132" data-name="패스 132" d="M18.585,50.734a2.164,2.164,0,0,0-.55-1.593,2.226,2.226,0,0,0-1.644-.554,2.6,2.6,0,0,0-1.865.648,2.309,2.309,0,0,0-.68,1.755,2.129,2.129,0,0,0,.718,1.725,3.123,3.123,0,0,0,2.067.605,4.829,4.829,0,0,0,.954-.087,5.354,5.354,0,0,0,.918-.281V51.808h-.16a2.792,2.792,0,0,1-.677.355,2.449,2.449,0,0,1-.884.165,1.786,1.786,0,0,1-1.091-.28,1.035,1.035,0,0,1-.4-.81h3.3Zm-3.3-.341a.929.929,0,0,1,.3-.694,1.045,1.045,0,0,1,.68-.216.854.854,0,0,1,.656.228,1.026,1.026,0,0,1,.223.682Z" transform="translate(-8.094 -28.404)" fill="#161615"/>
    <path id="패스_133" data-name="패스 133" d="M3.771,47.719a6.672,6.672,0,0,0-.647-.175L2.5,47.413a2,2,0,0,1-.677-.23.414.414,0,0,1-.179-.362.422.422,0,0,1,.112-.288.691.691,0,0,1,.266-.188,1.426,1.426,0,0,1,.366-.1,2.7,2.7,0,0,1,.381-.027,3.018,3.018,0,0,1,1.063.2,3.179,3.179,0,0,1,.88.487h.163V45.54a5.476,5.476,0,0,0-1-.283,6.027,6.027,0,0,0-1.166-.113,3.277,3.277,0,0,0-1.925.525,1.593,1.593,0,0,0-.749,1.356,1.624,1.624,0,0,0,.328,1.036,2.192,2.192,0,0,0,1.077.66,5.2,5.2,0,0,0,.7.179c.249.047.484.1.707.15a1.159,1.159,0,0,1,.484.218.434.434,0,0,1,.165.337.448.448,0,0,1-.113.333.908.908,0,0,1-.288.187,1.369,1.369,0,0,1-.37.084,3.5,3.5,0,0,1-.366.025,3.381,3.381,0,0,1-1.128-.206,3.532,3.532,0,0,1-1.061-.59H0v1.414a6.727,6.727,0,0,0,1.032.327,5.72,5.72,0,0,0,1.293.128,3.362,3.362,0,0,0,2.029-.549A1.7,1.7,0,0,0,5.1,49.33a1.5,1.5,0,0,0-.324-1,2.172,2.172,0,0,0-1.006-.61" transform="translate(0 -26.391)" fill="#161615"/>
    <path id="패스_134" data-name="패스 134" d="M29.43,48.587a2.482,2.482,0,0,0-1.81.635,2.678,2.678,0,0,0,0,3.494,2.472,2.472,0,0,0,1.814.636,2.475,2.475,0,0,0,1.814-.636,2.684,2.684,0,0,0,0-3.489,2.463,2.463,0,0,0-1.818-.64m.9,3.067a1.164,1.164,0,0,1-.21.417.693.693,0,0,1-.3.223,1.122,1.122,0,0,1-.779-.007.754.754,0,0,1-.306-.229,1.132,1.132,0,0,1-.2-.437,2.666,2.666,0,0,1-.068-.642,2.561,2.561,0,0,1,.078-.688,1.163,1.163,0,0,1,.21-.43.74.74,0,0,1,.31-.225,1.116,1.116,0,0,1,.37-.057,1.079,1.079,0,0,1,.388.069.706.706,0,0,1,.309.233,1.179,1.179,0,0,1,.2.431,2.635,2.635,0,0,1,.072.668,2.57,2.57,0,0,1-.069.674" transform="translate(-15.767 -28.404)" fill="#161615"/>
    <path id="패스_135" data-name="패스 135" d="M43.786,46.7a4.286,4.286,0,0,0-.53-.218,2.154,2.154,0,0,0-.662-.086,1.961,1.961,0,0,0-.776.166,1.869,1.869,0,0,0-.66.463,2.314,2.314,0,0,0-.454.754,2.84,2.84,0,0,0-.166,1.009,2.679,2.679,0,0,0,.492,1.7,1.583,1.583,0,0,0,1.311.629,1.813,1.813,0,0,0,.748-.146,3.269,3.269,0,0,0,.7-.449v.466h1.444v-6.2H43.786Zm0,3.056a1.483,1.483,0,0,1-.386.194,1.31,1.31,0,0,1-.414.073.86.86,0,0,1-.728-.3,1.592,1.592,0,0,1-.227-.956,1.528,1.528,0,0,1,.282-.979,1.022,1.022,0,0,1,.848-.354,1.867,1.867,0,0,1,.307.029,1.392,1.392,0,0,1,.319.092Z" transform="translate(-23.698 -26.184)" fill="#161615"/>
    <path id="패스_136" data-name="패스 136" d="M58.305,49a3.22,3.22,0,0,0-1.777-.376,6.575,6.575,0,0,0-1.032.081c-.344.055-.592.1-.744.141v1.079h.132c.116-.047.309-.112.578-.2a2.514,2.514,0,0,1,.758-.128,2.193,2.193,0,0,1,.894.143.52.52,0,0,1,.3.516v.025c-.424.023-.833.061-1.227.112a3.431,3.431,0,0,0-.989.254,1.473,1.473,0,0,0-.624.489,1.36,1.36,0,0,0-.22.8,1.3,1.3,0,0,0,.431,1.007,1.527,1.527,0,0,0,1.07.394,2.626,2.626,0,0,0,.5-.044,2.043,2.043,0,0,0,.439-.137,2.1,2.1,0,0,0,.323-.195c.115-.083.21-.152.287-.211v.474h1.444V50.185A1.334,1.334,0,0,0,58.305,49m-.9,3.049a1.4,1.4,0,0,1-.394.228,1.239,1.239,0,0,1-.442.086,1.583,1.583,0,0,1-.4-.037.579.579,0,0,1-.221-.116.329.329,0,0,1-.122-.166.845.845,0,0,1-.025-.224.481.481,0,0,1,.115-.336.716.716,0,0,1,.333-.195,3.16,3.16,0,0,1,.52-.1c.23-.027.442-.049.639-.064Z" transform="translate(-31.778 -28.427)" fill="#161615"/>
    <path id="패스_137" data-name="패스 137" d="M70.106,48.587a2.6,2.6,0,0,0-1.866.648,2.307,2.307,0,0,0-.68,1.755,2.13,2.13,0,0,0,.718,1.725,3.124,3.124,0,0,0,2.067.605,4.823,4.823,0,0,0,.954-.087,5.346,5.346,0,0,0,.918-.281V51.808h-.16a2.816,2.816,0,0,1-.677.355,2.448,2.448,0,0,1-.884.165,1.782,1.782,0,0,1-1.091-.28,1.036,1.036,0,0,1-.4-.81h3.3v-.5a2.165,2.165,0,0,0-.55-1.593,2.224,2.224,0,0,0-1.643-.554M69,50.392a.925.925,0,0,1,.3-.694,1.045,1.045,0,0,1,.68-.216.851.851,0,0,1,.655.228,1.019,1.019,0,0,1,.223.682Z" transform="translate(-39.495 -28.404)" fill="#161615"/>
    <path id="패스_138" data-name="패스 138" d="M87.34,48.666a1.772,1.772,0,0,0-.8.206,4.482,4.482,0,0,0-.84.569,1.343,1.343,0,0,0-.532-.578,1.534,1.534,0,0,0-.784-.2,1.71,1.71,0,0,0-.752.164,3.917,3.917,0,0,0-.712.452v-.5H81.476v4.473H82.92V50.087a3.068,3.068,0,0,1,.361-.18,1.161,1.161,0,0,1,.825-.02.446.446,0,0,1,.219.209,1,1,0,0,1,.087.372q.016.229.016.555v2.231h1.444V50.087a2.691,2.691,0,0,1,.422-.2,1.04,1.04,0,0,1,.353-.062,1.064,1.064,0,0,1,.417.066.42.42,0,0,1,.217.209.947.947,0,0,1,.086.371q.013.226.013.556v2.231h1.444V50.347a1.838,1.838,0,0,0-.378-1.248,1.389,1.389,0,0,0-1.105-.433" transform="translate(-47.631 -28.45)" fill="#161615"/>
    <path id="패스_139" data-name="패스 139" d="M105.354,52.12a1.766,1.766,0,0,1-.436.2,1.432,1.432,0,0,1-.412.068,1.1,1.1,0,0,1-.434-.068.461.461,0,0,1-.233-.216.968.968,0,0,1-.1-.373c-.015-.151-.022-.339-.022-.566V48.94h-1.443v2.916a1.77,1.77,0,0,0,.4,1.26,1.508,1.508,0,0,0,1.151.427,1.846,1.846,0,0,0,.795-.158,4.269,4.269,0,0,0,.734-.461v.489H106.8V48.94h-1.443Z" transform="translate(-59.787 -28.61)" fill="#161615"/>
    <path id="패스_140" data-name="패스 140" d="M119.441,48.666a1.9,1.9,0,0,0-.788.159,3.7,3.7,0,0,0-.741.457v-.5h-1.444v4.473h1.444V50.087a2.2,2.2,0,0,1,.442-.2,1.335,1.335,0,0,1,.4-.064,1.11,1.11,0,0,1,.434.068.483.483,0,0,1,.236.214,1.135,1.135,0,0,1,.1.4,5.29,5.29,0,0,1,.028.538v2.216H121V50.347a1.729,1.729,0,0,0-.413-1.259,1.519,1.519,0,0,0-1.142-.422" transform="translate(-68.088 -28.45)" fill="#161615"/>
    <path id="패스_141" data-name="패스 141" d="M140.6,48.421l-1.345-2.965h-1.8v5.92h1.46V47.409l1.108,2.568h1.064l1.107-2.568v3.967h1.542v-5.92h-1.8Z" transform="translate(-80.36 -26.573)" fill="#161615"/>
    <path id="패스_142" data-name="패스 142" d="M159,52.12a1.771,1.771,0,0,1-.437.2,1.427,1.427,0,0,1-.411.068,1.107,1.107,0,0,1-.435-.068.463.463,0,0,1-.233-.216.961.961,0,0,1-.1-.373c-.015-.151-.023-.339-.023-.566V48.94h-1.443v2.916a1.768,1.768,0,0,0,.4,1.26,1.507,1.507,0,0,0,1.15.427,1.839,1.839,0,0,0,.794-.158,4.242,4.242,0,0,0,.736-.461v.489h1.444V48.94H159Z" transform="translate(-91.15 -28.61)" fill="#161615"/>
    <path id="패스_143" data-name="패스 143" d="M172.474,50.588c-.171-.042-.341-.078-.51-.106s-.326-.056-.472-.085a1.471,1.471,0,0,1-.507-.167.29.29,0,0,1-.108-.243c0-.11.079-.195.238-.255a1.652,1.652,0,0,1,.586-.091,2.692,2.692,0,0,1,.831.132,3.052,3.052,0,0,1,.731.34h.123V48.985a3.94,3.94,0,0,0-.725-.217,4.556,4.556,0,0,0-.97-.1,2.925,2.925,0,0,0-1.689.428,1.271,1.271,0,0,0-.617,1.072,1.222,1.222,0,0,0,.3.838,1.762,1.762,0,0,0,.906.5,4.679,4.679,0,0,0,.5.1q.273.042.433.078a1.589,1.589,0,0,1,.456.141.256.256,0,0,1,.119.237.283.283,0,0,1-.2.262,1.667,1.667,0,0,1-.625.088,2.724,2.724,0,0,1-.606-.064,3.314,3.314,0,0,1-.506-.15,2.544,2.544,0,0,1-.4-.183q-.142-.086-.249-.157h-.132v1.172a4.17,4.17,0,0,0,.786.246,4.932,4.932,0,0,0,1.09.111,3.015,3.015,0,0,0,1.712-.424,1.292,1.292,0,0,0,.626-1.116,1.174,1.174,0,0,0-.271-.791,1.6,1.6,0,0,0-.838-.464" transform="translate(-99.012 -28.45)" fill="#161615"/>
    <path id="패스_144" data-name="패스 144" d="M183.6,48.587a2.6,2.6,0,0,0-1.866.648,2.307,2.307,0,0,0-.681,1.755,2.13,2.13,0,0,0,.718,1.725,3.124,3.124,0,0,0,2.067.605,4.823,4.823,0,0,0,.955-.087,5.377,5.377,0,0,0,.918-.281V51.808h-.16a2.8,2.8,0,0,1-.678.355,2.44,2.44,0,0,1-.884.165,1.782,1.782,0,0,1-1.091-.28,1.037,1.037,0,0,1-.4-.81h3.3v-.5a2.164,2.164,0,0,0-.549-1.593,2.227,2.227,0,0,0-1.644-.554m-1.106,1.805a.924.924,0,0,1,.3-.694,1.046,1.046,0,0,1,.68-.216.853.853,0,0,1,.656.228,1.017,1.017,0,0,1,.223.682Z" transform="translate(-105.843 -28.404)" fill="#161615"/>
    <path id="패스_145" data-name="패스 145" d="M197.933,52.12a1.782,1.782,0,0,1-.437.2,1.428,1.428,0,0,1-.412.068,1.108,1.108,0,0,1-.435-.068.463.463,0,0,1-.232-.216.99.99,0,0,1-.1-.373c-.013-.151-.022-.339-.022-.566V48.94h-1.444v2.916a1.764,1.764,0,0,0,.4,1.26,1.507,1.507,0,0,0,1.15.427,1.843,1.843,0,0,0,.8-.158,4.286,4.286,0,0,0,.735-.461v.489h1.444V48.94h-1.444Z" transform="translate(-113.908 -28.61)" fill="#161615"/>
    <path id="패스_146" data-name="패스 146" d="M214.914,48.666a1.768,1.768,0,0,0-.8.206,4.467,4.467,0,0,0-.84.569,1.354,1.354,0,0,0-.533-.578,1.534,1.534,0,0,0-.783-.2,1.713,1.713,0,0,0-.754.164,3.933,3.933,0,0,0-.712.452v-.5h-1.442v4.473h1.442V50.087a3.109,3.109,0,0,1,.361-.18,1.051,1.051,0,0,1,.413-.086,1.03,1.03,0,0,1,.412.066.437.437,0,0,1,.219.209.984.984,0,0,1,.088.372c.012.153.017.338.017.555v2.231h1.443V50.087a2.693,2.693,0,0,1,.422-.2,1.037,1.037,0,0,1,.352-.062,1.061,1.061,0,0,1,.417.066.425.425,0,0,1,.217.209.962.962,0,0,1,.087.371c.008.151.013.336.013.556v2.231H216.4V50.347a1.838,1.838,0,0,0-.378-1.248,1.389,1.389,0,0,0-1.1-.433" transform="translate(-122.211 -28.45)" fill="#161615"/>
    <path id="패스_147" data-name="패스 147" d="M238.389,48.587a2.481,2.481,0,0,0-1.81.635,2.678,2.678,0,0,0,0,3.494,2.9,2.9,0,0,0,3.628,0,2.686,2.686,0,0,0,0-3.489,2.464,2.464,0,0,0-1.817-.64m.9,3.067a1.156,1.156,0,0,1-.209.417.7.7,0,0,1-.3.223,1.094,1.094,0,0,1-.375.066,1.075,1.075,0,0,1-.405-.073.752.752,0,0,1-.306-.229,1.126,1.126,0,0,1-.2-.437,2.642,2.642,0,0,1-.068-.642,2.6,2.6,0,0,1,.078-.688,1.15,1.15,0,0,1,.211-.43.734.734,0,0,1,.309-.225,1.116,1.116,0,0,1,.371-.057,1.074,1.074,0,0,1,.386.069.708.708,0,0,1,.309.233,1.193,1.193,0,0,1,.2.431,2.66,2.66,0,0,1,.071.668,2.536,2.536,0,0,1-.069.674" transform="translate(-137.924 -28.404)" fill="#161615"/>
    <path id="패스_148" data-name="패스 148" d="M251.422,44.711a1.9,1.9,0,0,0-1.334.408,1.593,1.593,0,0,0-.441,1.225v.123h-.623v.975h.623v3.5h1.444v-3.5h1.082v-.975h-1.131v-.035a.826.826,0,0,1,.15-.58.845.845,0,0,1,.58-.15,1.537,1.537,0,0,1,.334.035c.1.023.187.044.252.063h.11V44.79c-.136-.023-.289-.042-.464-.056s-.368-.023-.582-.023" transform="translate(-145.578 -26.138)" fill="#161615"/>
    <path id="패스_149" data-name="패스 149" d="M269.582,48.847l-2.191-3.391h-1.844v5.92h1.411V47.312l2.552,4.064h1.483v-5.92h-1.411Z" transform="translate(-155.239 -26.574)" fill="#161615"/>
    <path id="패스_150" data-name="패스 150" d="M285.283,49a3.23,3.23,0,0,0-1.778-.376,6.559,6.559,0,0,0-1.031.081c-.344.055-.592.1-.744.141v1.079h.133c.115-.047.309-.112.577-.2a2.519,2.519,0,0,1,.758-.128,2.189,2.189,0,0,1,.894.143.52.52,0,0,1,.3.516v.025c-.424.023-.832.061-1.227.112a3.424,3.424,0,0,0-.989.254,1.472,1.472,0,0,0-.624.489,1.348,1.348,0,0,0-.219.8,1.3,1.3,0,0,0,.431,1.007,1.528,1.528,0,0,0,1.071.394,2.612,2.612,0,0,0,.5-.044,2.032,2.032,0,0,0,.44-.137,2.143,2.143,0,0,0,.324-.195c.114-.083.209-.152.287-.211v.474h1.444V50.185A1.336,1.336,0,0,0,285.283,49m-.9,3.049a1.4,1.4,0,0,1-.393.228,1.239,1.239,0,0,1-.442.086,1.586,1.586,0,0,1-.4-.037.6.6,0,0,1-.222-.116.337.337,0,0,1-.121-.166.83.83,0,0,1-.024-.224.483.483,0,0,1,.115-.336.709.709,0,0,1,.332-.195,3.178,3.178,0,0,1,.522-.1c.228-.027.442-.049.638-.064Z" transform="translate(-164.468 -28.427)" fill="#161615"/>
    <path id="패스_151" data-name="패스 151" d="M296.138,45.848h-1.444v1.284h-.589v.975h.589v2.085a1.422,1.422,0,0,0,.41,1.156,1.945,1.945,0,0,0,1.25.337,5.226,5.226,0,0,0,.636-.033,4.042,4.042,0,0,0,.493-.093V50.58h-.12a1.18,1.18,0,0,1-.253.085,1.3,1.3,0,0,1-.294.045.833.833,0,0,1-.414-.082.44.44,0,0,1-.2-.219.86.86,0,0,1-.064-.314c0-.117,0-.253,0-.408v-1.58h1.346v-.975h-1.346Z" transform="translate(-171.933 -26.803)" fill="#161615"/>
    <path id="패스_152" data-name="패스 152" d="M307.3,52.12a1.793,1.793,0,0,1-.437.2,1.427,1.427,0,0,1-.411.068,1.11,1.11,0,0,1-.435-.068.462.462,0,0,1-.232-.216.969.969,0,0,1-.1-.373c-.015-.151-.022-.339-.022-.566V48.94h-1.443v2.916a1.765,1.765,0,0,0,.4,1.26,1.5,1.5,0,0,0,1.15.427,1.843,1.843,0,0,0,.794-.158,4.308,4.308,0,0,0,.736-.461v.489h1.443V48.94H307.3Z" transform="translate(-177.842 -28.61)" fill="#161615"/>
    <path id="패스_153" data-name="패스 153" d="M321.335,48.939a1.972,1.972,0,0,0-.649.125,2.86,2.86,0,0,0-.83.531v-.657h-1.443v4.473h1.443V50.431a3.044,3.044,0,0,1,.509-.135,3.244,3.244,0,0,1,.545-.04c.09,0,.2.006.341.017a1.272,1.272,0,0,1,.3.049h.128V48.956c-.048-.007-.1-.009-.169-.012s-.12,0-.172,0" transform="translate(-186.144 -28.61)" fill="#161615"/>
    <path id="패스_154" data-name="패스 154" d="M331.393,49a3.219,3.219,0,0,0-1.777-.376,6.6,6.6,0,0,0-1.033.081c-.344.055-.591.1-.744.141v1.079h.132c.117-.047.31-.112.578-.2a2.519,2.519,0,0,1,.759-.128,2.194,2.194,0,0,1,.893.143.522.522,0,0,1,.3.516v.025c-.423.023-.832.061-1.225.112a3.436,3.436,0,0,0-.991.254,1.475,1.475,0,0,0-.624.489,1.357,1.357,0,0,0-.219.8,1.3,1.3,0,0,0,.43,1.007,1.528,1.528,0,0,0,1.071.394,2.617,2.617,0,0,0,.5-.044,2.029,2.029,0,0,0,.44-.137,2.137,2.137,0,0,0,.324-.195c.114-.083.21-.152.287-.211v.474h1.443V50.185A1.334,1.334,0,0,0,331.393,49m-.9,3.049a1.4,1.4,0,0,1-.394.228,1.244,1.244,0,0,1-.443.086,1.574,1.574,0,0,1-.4-.037.585.585,0,0,1-.223-.116.328.328,0,0,1-.12-.166.8.8,0,0,1-.024-.224.483.483,0,0,1,.115-.336.7.7,0,0,1,.334-.195,3.134,3.134,0,0,1,.52-.1c.229-.027.441-.049.638-.064Z" transform="translate(-191.425 -28.427)" fill="#161615"/>
    <rect id="사각형_32" data-name="사각형 32" width="1.443" height="6.197" transform="translate(141.834 18.606)" fill="#161615"/>
    <path id="패스_155" data-name="패스 155" d="M358.946,47.619h-2.3V45.456H355.11v5.92h1.541V48.757h2.3v2.619h1.542v-5.92h-1.542Z" transform="translate(-207.596 -26.574)" fill="#161615"/>
    <rect id="사각형_33" data-name="사각형 33" width="1.444" height="4.473" transform="translate(154.322 20.329)" fill="#161615"/>
    <rect id="사각형_34" data-name="사각형 34" width="1.509" height="1.09" transform="translate(154.29 18.606)" fill="#161615"/>
    <path id="패스_156" data-name="패스 156" d="M380.612,50.588c-.171-.042-.34-.078-.51-.106s-.326-.056-.472-.085a1.458,1.458,0,0,1-.508-.167.291.291,0,0,1-.107-.243c0-.11.079-.195.238-.255a1.65,1.65,0,0,1,.587-.091,2.693,2.693,0,0,1,.83.132,3.046,3.046,0,0,1,.731.34h.124V48.985a4.006,4.006,0,0,0-.726-.217,4.565,4.565,0,0,0-.972-.1,2.921,2.921,0,0,0-1.687.428,1.269,1.269,0,0,0-.617,1.072,1.221,1.221,0,0,0,.295.838,1.765,1.765,0,0,0,.905.5,4.659,4.659,0,0,0,.5.1c.182.028.327.054.433.078a1.586,1.586,0,0,1,.455.141.257.257,0,0,1,.12.237.284.284,0,0,1-.2.262,1.666,1.666,0,0,1-.625.088,2.737,2.737,0,0,1-.606-.064,3.357,3.357,0,0,1-.508-.15,2.625,2.625,0,0,1-.4-.183q-.141-.086-.249-.157h-.131v1.172a4.154,4.154,0,0,0,.786.246,4.946,4.946,0,0,0,1.091.111,3.013,3.013,0,0,0,1.711-.424,1.292,1.292,0,0,0,.626-1.116,1.17,1.17,0,0,0-.271-.791,1.6,1.6,0,0,0-.838-.464" transform="translate(-220.689 -28.45)" fill="#161615"/>
    <path id="패스_157" data-name="패스 157" d="M390.79,45.848h-1.443v1.284h-.591v.975h.591v2.085a1.42,1.42,0,0,0,.41,1.156,1.942,1.942,0,0,0,1.25.337,5.228,5.228,0,0,0,.636-.033,4.063,4.063,0,0,0,.493-.093V50.58h-.12a1.192,1.192,0,0,1-.253.085,1.28,1.28,0,0,1-.293.045.823.823,0,0,1-.412-.082.436.436,0,0,1-.2-.219.828.828,0,0,1-.064-.314q0-.175,0-.408v-1.58h1.346v-.975H390.79Z" transform="translate(-227.266 -26.803)" fill="#161615"/>
    <path id="패스_158" data-name="패스 158" d="M400.656,48.587a2.485,2.485,0,0,0-1.811.635,2.678,2.678,0,0,0,0,3.494,2.9,2.9,0,0,0,3.627,0,2.687,2.687,0,0,0,0-3.489,2.467,2.467,0,0,0-1.818-.64m.9,3.067a1.149,1.149,0,0,1-.209.417.689.689,0,0,1-.3.223,1.122,1.122,0,0,1-.779-.007.749.749,0,0,1-.305-.229,1.133,1.133,0,0,1-.2-.437,2.686,2.686,0,0,1-.068-.642,2.54,2.54,0,0,1,.079-.688,1.161,1.161,0,0,1,.21-.43.735.735,0,0,1,.311-.225,1.114,1.114,0,0,1,.37-.057,1.082,1.082,0,0,1,.388.069.714.714,0,0,1,.308.233,1.186,1.186,0,0,1,.2.431,2.611,2.611,0,0,1,.073.668,2.528,2.528,0,0,1-.071.674" transform="translate(-232.785 -28.404)" fill="#161615"/>
    <path id="패스_159" data-name="패스 159" d="M415.478,48.939a1.973,1.973,0,0,0-.651.125A2.867,2.867,0,0,0,414,49.6v-.657h-1.444v4.473H414V50.431a3.013,3.013,0,0,1,.51-.135,3.226,3.226,0,0,1,.544-.04c.091,0,.2.006.341.017a1.285,1.285,0,0,1,.3.049h.128V48.956c-.047-.007-.1-.009-.169-.012s-.121,0-.172,0" transform="translate(-241.179 -28.61)" fill="#161615"/>
    <path id="패스_160" data-name="패스 160" d="M424.626,48.939,423.6,51.815l-1.073-2.875H421l1.757,4.441-.719,1.674h1.571l2.508-6.115Z" transform="translate(-246.113 -28.61)" fill="#161615"/>
    <path id="패스_161" data-name="패스 161" d="M4.056.8.018,9.423h2.07L4.815,3.558,7.541,9.423h2.07L5.608.8Z" transform="translate(-0.011 -0.466)" fill="#161615"/>
    <path id="패스_162" data-name="패스 162" d="M26.133,15.024h2.15V.8h-2.15V3.258H23.51V5.11h2.623Z" transform="translate(-13.744 -0.466)" fill="#161615"/>
    <path id="패스_163" data-name="패스 163" d="M71.991,6.651h1.72v8.361H75.86V.8H73.711v4h-1.72V.8h-2.15V15.012h2.15Z" transform="translate(-40.829 -0.466)" fill="#161615"/>
    <path id="패스_164" data-name="패스 164" d="M104.549,4.335c.005.056.008.113.008.172a1.68,1.68,0,0,1-1.631,1.68h10.324V.8H101.21V4.269A1.68,1.68,0,0,1,103.36,2.9V2.648H111.1V4.335" transform="translate(-59.167 -0.465)" fill="#161615"/>
    <path id="패스_165" data-name="패스 165" d="M97.681,18.572h6.625v2h2.151v-2H112.8V16.72H97.681Z" transform="translate(-57.104 -9.774)" fill="#161615"/>
    <path id="패스_166" data-name="패스 166" d="M154.23,2.655H157.1V.8h-8.974V2.655h2.865l-3.174,6.8h2.139l2.658-5.728,2.657,5.728h2.139Z" transform="translate(-86.411 -0.469)" fill="#161615"/>
    <path id="패스_167" data-name="패스 167" d="M179.267,5.1h1.553V3.246h-1.553V.8h-2.15V15.013h2.15Z" transform="translate(-103.542 -0.466)" fill="#161615"/>
    <path id="패스_168" data-name="패스 168" d="M201.422,7.806a3.959,3.959,0,0,0,2.86-1.138,3.742,3.742,0,0,0,1.176-2.8,3.669,3.669,0,0,0-1.176-2.732,4.166,4.166,0,0,0-5.72,0,3.673,3.673,0,0,0-1.174,2.732,3.746,3.746,0,0,0,1.174,2.8,3.963,3.963,0,0,0,2.86,1.138M200.1,2.458a1.746,1.746,0,0,1,2.645,0,2.03,2.03,0,0,1,.563,1.426,2.072,2.072,0,0,1-.563,1.462,1.745,1.745,0,0,1-2.645,0,2.071,2.071,0,0,1-.562-1.462,2.029,2.029,0,0,1,.562-1.426" transform="translate(-115.392 0)" fill="#161615"/>
    <path id="패스_169" data-name="패스 169" d="M223.037,1.839H220.1V3.691h2.934V4.782H220.1V6.635h2.934V9.43h2.15V.77h-2.15Z" transform="translate(-128.672 -0.45)" fill="#161615"/>
    <path id="패스_170" data-name="패스 170" d="M277.938,5.109h1.552V3.258h-1.552V.8h-2.151V14.759h2.151Z" transform="translate(-161.225 -0.466)" fill="#161615"/>
    <path id="패스_171" data-name="패스 171" d="M256.075,9.423l-4-8.627H250.52l-4.038,8.627h2.072l2.725-5.866,2.726,5.866Z" transform="translate(-144.093 -0.466)" fill="#161615"/>
    <path id="패스_172" data-name="패스 172" d="M327.269,4.447h1.552V2.595h-1.552V.766h-2.151V8.622h2.151Z" transform="translate(-190.064 -0.448)" fill="#161615"/>
    <path id="패스_173" data-name="패스 173" d="M312.54,27.344V21.49H299.923v1.852h10.466v4Z" transform="translate(-175.334 -12.563)" fill="#161615"/>
    <path id="패스_174" data-name="패스 174" d="M408.972,4.478h1.566V2.626h-1.553V.8h-2.15v6h-7.077v-2h-2.149v2h-2.8V8.645h14.159Z" transform="translate(-230.807 -0.466)" fill="#161615"/>
    <path id="패스_175" data-name="패스 175" d="M402.25,5.467H404.4V.821h-8.83V2.673h6.681Z" transform="translate(-231.249 -0.48)" fill="#161615"/>
    <path id="패스_176" data-name="패스 176" d="M51.717,9.131c.068.005.136.01.2.01s.138,0,.2-.01h4.694V7.279H52.776a1.193,1.193,0,0,1-1.029-1V2.648h5.073V.8H49.6V6.547a2.313,2.313,0,0,0,0,.511,2.339,2.339,0,0,0,2.12,2.074" transform="translate(-28.986 -0.465)" fill="#161615"/>
    <path id="패스_177" data-name="패스 177" d="M105.144,13.777c.017,0,.034,0,.051,0h-.1c.017,0,.034,0,.052,0" transform="translate(-61.437 -8.052)" fill="#161615"/>
    <path id="패스_178" data-name="패스 178" d="M101.184,9.156a1.522,1.522,0,0,0,0,.476Z" transform="translate(-59.141 -5.353)" fill="#161615"/>
    <path id="패스_179" data-name="패스 179" d="M106.385,8.5v.337h.39a.6.6,0,0,1-.39-.337" transform="translate(-62.192 -4.971)" fill="#161615"/>
    <path id="패스_180" data-name="패스 180" d="M102.823,9.04h.1a1.68,1.68,0,0,0,1.631-1.68c0-.058,0-.115-.007-.172h-.473a.555.555,0,0,1-.326,0h-.39V6.851a.593.593,0,0,1,0-.484V5.749a1.68,1.68,0,0,0-2.15,1.373V7.6a1.679,1.679,0,0,0,1.613,1.443" transform="translate(-59.167 -3.319)" fill="#161615"/>
    <path id="패스_181" data-name="패스 181" d="M106.262,7.581a.6.6,0,0,0,.051.242V7.34a.594.594,0,0,0-.051.241" transform="translate(-62.121 -4.291)" fill="#161615"/>
    <path id="패스_182" data-name="패스 182" d="M107.486,9.342a.618.618,0,0,0,.163-.025h-.326a.622.622,0,0,0,.163.025" transform="translate(-62.741 -5.447)" fill="#161615"/>
    <path id="패스_183" data-name="패스 183" d="M104.128,26.8h-.005V26.8l-.025.006h-.26a.605.605,0,0,1-.47-.588l-.006-.352V24.181h-2.15V27.5a1.5,1.5,0,0,0,1.2,1.152h10.842V26.8Z" transform="translate(-59.167 -14.136)" fill="#161615"/>
    <path id="패스_184" data-name="패스 184" d="M206.144,26.244h-.866a.729.729,0,0,1-.434-.439V22.517H202.7v3.618a1.505,1.505,0,0,0,0,.478,1.734,1.734,0,0,0,1.5,1.483,1.606,1.606,0,0,0,.216.015,1.663,1.663,0,0,0,.218-.015H215V26.244Z" transform="translate(-118.484 -13.163)" fill="#161615"/>
    <path id="패스_185" data-name="패스 185" d="M402.166,26.968H401.3a.728.728,0,0,1-.434-.438V23.771h-2.149V26.86a1.444,1.444,0,0,0,0,.478,1.75,1.75,0,0,0,1.718,1.5,1.685,1.685,0,0,0,.216-.015h10.368V26.968Z" transform="translate(-233.078 -13.897)" fill="#161615"/>
    <path id="패스_186" data-name="패스 186" d="M359.661,15.983V14.132H344.678v1.851h6.351v.794H346V18.63h9.89v.462H348.26c-.047,0-.093-.006-.14-.006s-.094,0-.141.006H346V21c-.005.069-.01.14-.01.211s0,.14.01.209a2.131,2.131,0,0,0,1.86,1.9,2.222,2.222,0,0,0,.26.017,2.19,2.19,0,0,0,.259-.017h9.662V21.475h-9.648a.265.265,0,0,1-.242-.263v-.267h9.89V16.777h-4.863v-.794Z" transform="translate(-201.498 -8.262)" fill="#161615"/>
    <path id="패스_187" data-name="패스 187" d="M303.214,1.71V3.229h-4.8V1.71h-2.151V6.565a1.762,1.762,0,0,0,0,.54,1.985,1.985,0,0,0,1.867,1.713c.034,0,.067,0,.1,0s.067,0,.1,0h7.029V1.71Zm0,5.256h-4.08a.9.9,0,0,1-.715-.653V5.081h4.8Z" transform="translate(-173.185 -1)" fill="#161615"/>
    <path id="패스_188" data-name="패스 188" d="M347.861,1.791V4.917a1.728,1.728,0,0,0,1.384,1.339H359.9V1.791Zm9.89,2.612h-7.22a.385.385,0,0,1-.127.024.4.4,0,0,1-.392-.393V3.643h7.739Z" transform="translate(-203.359 -1.047)" fill="#161615"/>
    <path id="패스_189" data-name="패스 189" d="M353.8,8.1a.39.39,0,0,0,.128-.024h-.256a.392.392,0,0,0,.128.024" transform="translate(-206.756 -4.724)" fill="#161615"/>
  </g>
</svg>
