<svg xmlns="http://www.w3.org/2000/svg" width="16.698" height="24.667" viewBox="0 0 16.698 24.667">
  <g id="icon_menu3" transform="translate(0.349 0.334)">
    <path id="패스_279" data-name="패스 279" d="M14.807,12.836a8.331,8.331,0,0,0,.926-2.339,8.4,8.4,0,0,0-.959-5.972A7.37,7.37,0,0,0,8.75.76a8.047,8.047,0,0,0-.835,0A7.369,7.369,0,0,0,1.892,4.525,8.393,8.393,0,0,0,.933,10.5a8.371,8.371,0,0,0,.928,2.341L7.943,23.658a.423.423,0,0,0,.779,0Z" transform="translate(-0.333 -0.333)" fill="#a8baff" stroke="#272525" stroke-miterlimit="10" stroke-width="1.5"/>
    <path id="패스_278" data-name="패스 278" d="M15.074,11.142a4,4,0,1,0-4,4A4,4,0,0,0,15.074,11.142Z" transform="translate(-3.143 -3.173)" fill="#fff" stroke="#272525" stroke-linecap="round" stroke-miterlimit="10" stroke-width="1.5"/>
    <rect id="사각형_43" data-name="사각형 43" width="16" height="24" transform="translate(0 0)" fill="none"/>
  </g>
</svg>
