<svg xmlns="http://www.w3.org/2000/svg" xmlns:xlink="http://www.w3.org/1999/xlink" width="215.361" height="38.734" viewBox="0 0 215.361 38.734">
  <defs>
    <clipPath id="clip-path">
      <rect id="사각형_36" data-name="사각형 36" width="40" height="38.734" fill="none"/>
    </clipPath>
    <clipPath id="clip-path-2">
      <rect id="사각형_41" data-name="사각형 41" width="163.361" height="24"/>
    </clipPath>
  </defs>
  <g id="그룹_65" data-name="그룹 65" transform="translate(-15 -9)">
    <g id="그룹_42" data-name="그룹 42" transform="translate(15 9)">
      <g id="그룹_41" data-name="그룹 41" clip-path="url(#clip-path)">
        <path id="패스_190" data-name="패스 190" d="M19.266.665a2.483,2.483,0,0,1,.447.162c.723.349.666.98.615,1.679C20.211,4.12,21.373,5.367,22,6.783a13.925,13.925,0,0,1,1.367,5.2c.048,1.439.443,3.588-.58,4.774a6.083,6.083,0,0,1-2.828,1.65c-.94.324-1.817.877-1.472,2.02s1.687,1.593,2.6,2.174a10.94,10.94,0,0,1,3.069,3.225A7.46,7.46,0,0,0,26.971,28.8,15.736,15.736,0,0,0,32.4,29.869a33.868,33.868,0,0,0,5.109.284c.613-.026,2.759-.183,2.468.964-.149.587-1.077,1.007-1.579,1.214a30.1,30.1,0,0,1-4.762,1.28c-1.779.411-3.523.965-5.319,1.3-.6.112-2.268.553-1,1.236.472.254,2.556.442,1.6,1.381a5.227,5.227,0,0,1-2.46.9,27,27,0,0,1-5.664.258c-1.93-.021-3.859-.045-5.789-.055-1.913-.011-3.832.108-5.743.044-.859-.028-1.714-.106-2.574-.082-.562.016-1.4.1-1.77-.446-.66-.988,1.969-2.637,2.561-3.213a4.974,4.974,0,0,0,1.517-1.971c.187-.8-.487-1.386-.8-2.046-1.4-3,3.041-4.5,3.978-6.668a3.186,3.186,0,0,0-1.3-3.688C9.7,19.714,8.077,19.639,6.7,19.351a8.235,8.235,0,0,1-6.3-5.733A9.3,9.3,0,0,1,2.451,4.834C4.732,2.112,7.76.091,11.393,0a44.44,44.44,0,0,1,5.7.449,14.769,14.769,0,0,1,2.174.211" transform="translate(0.001 0)" fill="#161615"/>
        <path id="패스_191" data-name="패스 191" d="M42.983,37.89c-.136-.363-.781-.4-1.095-.432-2.687-.27-5.341.268-8.019-.4-3.3-.828-5.037-3.332-7.243-5.681-1.45-1.543-5.864-3.84-2.882-6.156,1.008-.782,2.1-1.211,2.8-2.343a7.01,7.01,0,0,0,.936-3.583,9.213,9.213,0,0,0-.659-3.716c-.591-1.379-1.9-2.479-2.147-4-.211-1.292.192-2.767-1.4-3.248A11.063,11.063,0,0,0,19.711,8.3c-3.085.1-5.867.308-8.437,2.176-2.925,2.126-5.732,6.212-4.661,9.71a2.326,2.326,0,0,0,1.065.56c1.575.43,3.1-.258,4.663-.138a11.83,11.83,0,0,1,3.579.718,10.468,10.468,0,0,0,8.22.083.982.982,0,0,1,1.239,1.316c-.746,1.464-2.459,2.16-2.828,3.732-.85,3.4,2.8,5.669,3.982,8.668.252.61.7,1.11.993,1.7.59-.034.664-1.014.46-1.493-.152-.357-1.3-2.219-.847-2.458.413-.219.985,1,1.09,1.307.235.683.388,1.382.629,2.064A3.862,3.862,0,0,1,29.225,38a.832.832,0,0,1-1.282.575,1.991,1.991,0,0,1-.255-.155A2.711,2.711,0,0,1,26.3,39.742c-2.691,1.112-5.7.742-8.564.616a3.858,3.858,0,0,1-2.167-.721,1.687,1.687,0,0,1-.363,1.077,6.134,6.134,0,0,1-1.779,1.274c-.521.3-2.313,1.193-1.483,1.962.358.331,1.077.3,1.527.319.884.045,1.76-.011,2.643-.045a27.341,27.341,0,0,1,2.848.043c.668.046,1.685.286,2.288-.124.752-.511-.238-1.176-.467-1.712-.508-1.188,1.529-.783,2.175-1.027.469-.177,1.6-.772,1.9-.028.292.707-.758,1.009-1.183,1.235-.6.32-1.107,1.044-.343,1.526.591.373,1.408.126,2.049.067,1.859-.172,3.75-.063,5.615-.127.435-.015,1.3.04,1.351-.574s-.9-.761-1.289-1.006c-1.512-.946.849-1.867,1.632-2.084a34.745,34.745,0,0,1,5.363-.765,16.542,16.542,0,0,0,4.09-.837c.3-.12.89-.375.872-.78a.442.442,0,0,0-.031-.142" transform="translate(-5.201 -6.65)" fill="#65a947"/>
        <path id="패스_192" data-name="패스 192" d="M27.325,92.847a2.711,2.711,0,0,0,1.391-1.319,7.849,7.849,0,0,1-1.1-1.094c-.605-.654-1.416-1.192-1.649-2.15-.089-.368,0-.569.11-.512.757.4,1.188,1.565,1.994,2.018a.9.9,0,0,0,.484.139c-.289-.589-.741-1.088-.993-1.7-1.187-3-4.833-5.27-3.982-8.668.368-1.572,2.081-2.268,2.828-3.732a.982.982,0,0,0-1.239-1.316,10.469,10.469,0,0,1-8.22-.083,11.825,11.825,0,0,0-3.579-.718c-1.562-.12-3.088.568-4.663.138a2.328,2.328,0,0,1-1.065-.56,5.7,5.7,0,0,0,1.728,2.6c2.278,2.026,5.5,2.113,8.133,3.44,1.192.6,2.361,1.535,2.351,2.991,0,.023,0,.045,0,.068a3.769,3.769,0,0,1-.537,3.641c-1.065,1.291-2.33,2.279-3.395,3.57a1.019,1.019,0,0,0-.216.363c.494.539,1.752-.585,2.026-1.089a8.152,8.152,0,0,0-1.146,2.518c-.049.45.025.908.011,1.348a3.859,3.859,0,0,0,2.167.721c2.869.126,5.873.5,8.564-.617" transform="translate(-6.23 -59.755)" fill="#dae198"/>
        <path id="패스_193" data-name="패스 193" d="M54.039,126.193a3.769,3.769,0,0,0,.537-3.641c-.042,1.522-1.144,2.764-2.152,3.791-.726.739-2.3,2.086-2.183,3.264a.891.891,0,0,0,.188.519,1.018,1.018,0,0,1,.216-.363c1.065-1.291,2.329-2.279,3.395-3.57" transform="translate(-40.955 -99.915)" fill="#65a947"/>
        <path id="패스_194" data-name="패스 194" d="M15.947,43.284c.447-.1,1.033.236.933.737a1.047,1.047,0,0,1-.824.828.53.53,0,0,1-.174-.034,1.722,1.722,0,0,1-.356-.279c-.207-.2-.1-.5.023-.721.083-.151.133-.4.3-.493a.333.333,0,0,1,.1-.037" transform="translate(-12.564 -35.274)" fill="#161615"/>
        <path id="패스_195" data-name="패스 195" d="M94.221,42.094c-.673-.084-1.5.452-1.286,1.133a1.517,1.517,0,0,0,1.318,1.044.824.824,0,0,0,.252-.069,2.5,2.5,0,0,0,.491-.43c.281-.306.081-.709-.123-.994-.141-.2-.246-.53-.506-.644a.532.532,0,0,0-.146-.04" transform="translate(-75.742 -34.311)" fill="#161615"/>
        <path id="패스_196" data-name="패스 196" d="M157.587,174.355l.04.005c0-.019-.141-.018-.04-.005" transform="translate(-128.449 -142.141)" fill="#ffc300"/>
        <path id="패스_197" data-name="패스 197" d="M114.611,169.736l-.029.013c-.478.245-.846,1.4-.956,1.844a1.528,1.528,0,0,0,.883,1.821c-.264.591.548.741-.157,1.233-.259.18-1.5.435-1.81,1.422-.243.77,3.09.377,3.4.366a15.031,15.031,0,0,0,1.662-.2,2.718,2.718,0,0,0,.406.324,4.216,4.216,0,0,0,.811.162,12.265,12.265,0,0,0,1.621.162c.49.01,3.332.206,2.837-.684a3.056,3.056,0,0,0-1.478-1.337c-.854-.378-.779-2.1-.6-2.843.155-.632,2.148.294,2.32-.325.271-.974-2.4-2.15-3.02-2.063-1.272.179-2.55-.088-3.826.059a5.355,5.355,0,0,1-1.542.122c-.233-.044-.325-.162-.524-.075" transform="translate(-91.744 -138.293)" fill="#161615"/>
        <path id="패스_198" data-name="패스 198" d="M119.949,168.973a10.927,10.927,0,0,1-1.964.038,12.022,12.022,0,0,0-1.86.02c-.138.016-.284.04-.424.064a3.184,3.184,0,0,1-1.08.06,1.041,1.041,0,0,1-.178-.054.489.489,0,0,0-.418-.013h0l-.035.017c-.615.314-1,1.857-1.019,1.923a2.011,2.011,0,0,0-.063.481,1.387,1.387,0,0,0,.161.663,2.11,2.11,0,0,0,.756.756.669.669,0,0,0-.029.188.865.865,0,0,0,.121.4.474.474,0,0,1,.071.2c0,.084-.061.166-.242.293a2.013,2.013,0,0,1-.283.129,2.423,2.423,0,0,0-1.574,1.356.367.367,0,0,0-.019.114.32.32,0,0,0,.074.2c.331.414,1.818.345,3.229.224.112-.01.2-.017.237-.019a13.773,13.773,0,0,0,1.536-.182l.075-.011c.035.032.085.072.153.127a1.736,1.736,0,0,0,.251.179,3.085,3.085,0,0,0,.683.148l.156.023a12.6,12.6,0,0,0,1.638.163l.188.006c1.216.047,2.5.033,2.775-.421a.424.424,0,0,0-.017-.45,3.191,3.191,0,0,0-1.535-1.388c-.751-.333-.714-1.951-.53-2.7.052-.211.592-.135,1.026-.075.58.081,1.179.165,1.293-.246a.9.9,0,0,0-.278-.838,4.952,4.952,0,0,0-2.876-1.378m.034.241a4.83,4.83,0,0,1,2.659,1.3.681.681,0,0,1,.226.612c-.057.205-.594.131-1.025.07-.586-.082-1.191-.166-1.3.258-.186.759-.277,2.565.667,2.984a2.914,2.914,0,0,1,1.421,1.284c.063.114.043.171.022.2-.055.09-.27.248-1.093.3a14.461,14.461,0,0,1-1.465,0l-.192-.006a12.362,12.362,0,0,1-1.6-.161l-.16-.023a2.984,2.984,0,0,1-.619-.129,3.96,3.96,0,0,1-.317-.244l.043-.12-.2.031-.141.022a13.518,13.518,0,0,1-1.507.179c-.041,0-.124.009-.248.02-.371.032-1.062.091-1.7.091-1.025,0-1.261-.157-1.316-.224a.08.08,0,0,1-.02-.053.128.128,0,0,1,.007-.04,2.228,2.228,0,0,1,1.434-1.2,1.937,1.937,0,0,0,.33-.155c.261-.182.346-.338.346-.487a.71.71,0,0,0-.1-.316.634.634,0,0,1-.094-.291.456.456,0,0,1,.045-.189l.043-.1-.09-.056a1.482,1.482,0,0,1-.886-1.265,1.758,1.758,0,0,1,.056-.423c.149-.6.509-1.568.894-1.765l.022-.011c.086-.038.133-.02.234.018a1.316,1.316,0,0,0,.218.065,3.363,3.363,0,0,0,1.166-.059c.144-.024.28-.047.412-.062a11.816,11.816,0,0,1,1.822-.019,11.117,11.117,0,0,0,2.008-.04" transform="translate(-91.206 -137.757)" fill="#161615"/>
        <path id="패스_199" data-name="패스 199" d="M144.758,171.225c.026.03.55.526.567.567.18.427-1.615.041-1.733.452s.034.818-.2,1.167c-.349.521-.942.133-1.313-.166-.32-.259-.7-.434-1.014-.7-.4-.332-.8-1.192-.494-1.69a.035.035,0,0,1-.031-.016c.767-.146,1.526-.321,2.288-.494a4.2,4.2,0,0,1,1.929.875" transform="translate(-114.519 -138.88)" fill="#fee4be"/>
        <path id="패스_200" data-name="패스 200" d="M122.569,172.909a2.169,2.169,0,0,0-.746,1.95c.081.3.365.826.685.7.206-.082.308-.532.416-.727.164-.3.494-.46.495-.867,0-.5-.323-1.316-.85-1.056" transform="translate(-99.295 -140.93)" fill="#fee4be"/>
        <path id="패스_201" data-name="패스 201" d="M128.033,188.636c-.487-.365-.608.851-1.338.851a.707.707,0,0,0-.37-.726.8.8,0,0,0,.476,1.108.507.507,0,0,0,.364.033,1.72,1.72,0,0,0,.3-.07c.253-.607,1.36-.743.567-1.2" transform="translate(-102.942 -153.736)" fill="#af5121"/>
        <path id="패스_202" data-name="패스 202" d="M133.862,180.48a.946.946,0,0,1,.973.243c.122.122-.243.608-.122.852.487.365.852-.486.487-.852.487-.121.487.487.73.487a.307.307,0,0,0,.173-.193,3.75,3.75,0,0,1-1.2-1.163c-.016-.031-.031-.064-.045-.1-.464.025-1,.144-1,.723" transform="translate(-109.136 -146.553)" fill="#af5121"/>
        <path id="패스_203" data-name="패스 203" d="M130.367,177.51c.365-.608,1.459.365,1.7-.487,0-.243-.486-.243-.365-.608.1.1.159.035.211-.051-.267-.069-.605-.056-.8-.129a4.836,4.836,0,0,1-.94-.5.307.307,0,0,1-.173.193c-.243,0-.243-.608-.73-.487.365.365,0,1.217-.487.851-.121-.243.243-.729.122-.851a.946.946,0,0,0-.973-.243c0-.579.535-.7,1-.723a3.652,3.652,0,0,0-.333-.871c-.314-.41-.62-.441-.94-.042a.442.442,0,0,0-.069.108c-.1.28.184.743,0,.985-.229.31-.416.65-.628.972l-.066.1a1.629,1.629,0,0,0-.311.568c.238.084.37.361.37.726.73,0,.851-1.216,1.338-.851.793.453-.314.59-.567,1.2a2.548,2.548,0,0,1,.8-.194,3.754,3.754,0,0,1,1.632.375c.058.029.12.064.183.1a.221.221,0,0,1,.019-.143" transform="translate(-103.209 -141.273)" fill="#ffc22f"/>
        <path id="패스_204" data-name="패스 204" d="M148.83,190.232a.482.482,0,0,0-.356-.254c-.052.086-.111.151-.211.051-.122.365.364.365.364.608-.243.852-1.338-.122-1.7.487a.223.223,0,0,0-.019.143c.408.242.917.606,1.317.424.892-.4.817-.963.608-1.459" transform="translate(-119.767 -154.886)" fill="#af5121"/>
        <path id="패스_205" data-name="패스 205" d="M93.4,86.754c.1-.07,2.178-1.662,4.768.486.855.709,1.99.438,2.947.173.579-.16,2.26-.878,2.685-.132,0,0,.3.527-1.164,1.9.185-.174,1.038-.075,1.265-.056.535.044,1.563.495,1.168,1.143a7.094,7.094,0,0,1-1.983,1.63c.182-.128.908.078,1.051.2.883.735-1.289,2.076-1.2,2.194,0,0,2.4,3.243-1.765,3.041l-12.089-.041s-3.158-.162-1.911-2.229c.058-.1-.71-.672-.8-.818-.362-.577-.526-.97-.07-1.542a6.678,6.678,0,0,1-1.725-2.136c.007-.371.573-.552.856-.637a7.8,7.8,0,0,0,.981-.17c-.209-.531-.451-1.049-.635-1.589a2.465,2.465,0,0,1-.209-.774c.013-.393.1-.535.452-.575a2.493,2.493,0,0,1,.941.182c.385.122,1.6.388,1.808.721,0,0-1.539-2.513-.526-3.283.464-.353.82.259,1.028.57a4.261,4.261,0,0,0,1,1.054c.8.606,2.168,1.368,3.133.687" transform="translate(-68.955 -68.759)" fill="#161615"/>
        <path id="패스_206" data-name="패스 206" d="M109.292,102.54s-3.06,5.452-.863,8.553c0,0,2.253,3.648,8.635,1.763,0,0,3.679-1.2,3.079-4.925,0,0-.732-5.047-1.652-6.324s-5.688-5.067-9.2.933" transform="translate(-87.753 -80.916)" fill="#161615"/>
        <path id="패스_207" data-name="패스 207" d="M114.523,111.468a2.877,2.877,0,0,0-.364.412c-.25.293-.523.562-.778.85a9.653,9.653,0,0,1-.858.924c-.112.1-.231.182-.341.282-.06.055-.183.24-.258.256-.13.028-.087-.09-.072-.23.045-.43.156-.859.243-1.281-.7,1.742-1.554,3.647-1.467,5.595a4.234,4.234,0,0,0,2.533,3.684,7.763,7.763,0,0,0,5.325.412,4.539,4.539,0,0,0,3.361-3.116c.482-1.817-.094-3.8-.6-5.533a4.558,4.558,0,0,1-.228-.857c.037.4.228,1.313-.1,1.642-.213.216-.338-.064-.445-.238a13.667,13.667,0,0,0-.978-1.311c-.181-.228-.491-.89-.826-.785a1.822,1.822,0,0,0-.5.351c-.6.46-1.108,1.035-1.674,1.534-.208.184-.523.258-.579-.111s.2-.729.2-1.071c0-.5-.857.174-1.028.3-.241.178-.654.675-.971.659-.558-.027.1-1.544.21-1.83.07-.178.133-.357.2-.538" transform="translate(-90.187 -90.878)" fill="#fee4be"/>
        <path id="패스_208" data-name="패스 208" d="M118.945,136.322a.358.358,0,1,1-.357-.385.372.372,0,0,1,.357.385" transform="translate(-96.393 -110.828)" fill="#161615"/>
        <path id="패스_209" data-name="패스 209" d="M163.253,138.078a.358.358,0,1,1-.357-.385.372.372,0,0,1,.357.385" transform="translate(-132.517 -112.259)" fill="#161615"/>
        <path id="패스_210" data-name="패스 210" d="M116.992,143.213a1.85,1.85,0,0,0-.885-.057,1.914,1.914,0,0,0-.477.272c-.056.044-.174.118-.188.2-.019.122.25.363.341.421a.532.532,0,0,0,.4.052,1.388,1.388,0,0,0,.558-.356c.071-.059.24-.246.327-.266,0,0,.093-.021.094-.1s-.066-.127-.166-.166" transform="translate(-94.117 -116.689)" fill="#f39400"/>
        <path id="패스_211" data-name="패스 211" d="M160.452,145.3a1.481,1.481,0,0,1,.79-.057,1.673,1.673,0,0,1,.425.272c.05.044.156.118.168.2.017.121-.223.363-.3.421a.432.432,0,0,1-.354.052,1.229,1.229,0,0,1-.5-.356c-.063-.059-.214-.246-.292-.265a.111.111,0,0,1-.084-.1c0-.072.059-.127.149-.166" transform="translate(-130.693 -118.388)" fill="#f39400"/>
        <path id="패스_212" data-name="패스 212" d="M100.6,142a2.9,2.9,0,0,1-.735-.377.81.81,0,0,1-.008-.842c.209-.45.9-1.1,1.48-.646.321.251.208.534-.145.66-.294.1-.62.01-.487.324.063.146.256.242.318.405.156.412.046.657-.424.477" transform="translate(-81.315 -114.128)" fill="#fee4be"/>
        <path id="패스_213" data-name="패스 213" d="M175.663,142.222a2.859,2.859,0,0,0,.726-.377A.816.816,0,0,0,176.4,141c-.207-.451-.894-1.1-1.463-.647-.318.252-.206.535.144.66.291.1.613.01.481.324-.062.146-.253.242-.315.405-.155.412-.045.657.419.476" transform="translate(-142.468 -114.306)" fill="#fee4be"/>
        <path id="패스_214" data-name="패스 214" d="M134.817,143.191a.234.234,0,0,0,0,.33,1.913,1.913,0,0,0,.7.411,1.732,1.732,0,0,0,1.672-.353.234.234,0,0,0-.29-.368,1.3,1.3,0,0,1-1.756-.023.234.234,0,0,0-.331,0" transform="translate(-109.859 -116.685)" fill="#161615"/>
        <path id="패스_215" data-name="패스 215" d="M122.54,196.859a1.264,1.264,0,0,0-.311-.127,1.352,1.352,0,0,0-.8.156,1.3,1.3,0,0,1-.646.168.8.8,0,0,0-.5.082c-.507.242-.352.289-.886.451-.082.025-.8.4-.509.6.532.355,2.114-.183,2.726-.216l.434-.023.31.008c.375.009.489-.916.177-1.093" transform="translate(-96.875 -160.382)" fill="#fee4be"/>
        <path id="패스_216" data-name="패스 216" d="M142.178,198.261a.294.294,0,0,0-.211,0c-.184.086-.266.406-.266.594a.689.689,0,0,0,.748.761h.5s.374.066.468.066.717.033.81.033a9.188,9.188,0,0,0,1.41.088c.326-.058.85-.078.458-.486a2.751,2.751,0,0,0-.951-.7,1.308,1.308,0,0,0-.6-.047c-.318.122-.5.621-.943.386-.283-.15-.586-.249-.874-.389a3.723,3.723,0,0,0-.55-.309" transform="translate(-115.527 -161.626)" fill="#fee4be"/>
      </g>
    </g>
    <g id="그룹_43" data-name="그룹 43" transform="translate(67 17)" clip-path="url(#clip-path-2)">
      <path id="패스_217" data-name="패스 217" d="M15.272,40.445a1.963,1.963,0,0,0-.5-1.446,2.019,2.019,0,0,0-1.492-.5,2.354,2.354,0,0,0-1.693.587,2.094,2.094,0,0,0-.617,1.593,1.932,1.932,0,0,0,.652,1.565,2.837,2.837,0,0,0,1.876.55,4.406,4.406,0,0,0,.866-.079,4.764,4.764,0,0,0,.833-.256V41.419h-.145a2.535,2.535,0,0,1-.615.323,2.219,2.219,0,0,1-.8.149,1.623,1.623,0,0,1-.991-.254.94.94,0,0,1-.364-.735h2.992Zm-3-.31a.843.843,0,0,1,.27-.63.947.947,0,0,1,.618-.2.775.775,0,0,1,.595.206.932.932,0,0,1,.2.62Z" transform="translate(-5.75 -20.179)"/>
      <path id="패스_218" data-name="패스 218" d="M3.422,38.105a5.939,5.939,0,0,0-.588-.159l-.569-.119a1.843,1.843,0,0,1-.614-.208.377.377,0,0,1-.162-.328.384.384,0,0,1,.1-.262.621.621,0,0,1,.242-.17,1.288,1.288,0,0,1,.331-.092,2.47,2.47,0,0,1,.345-.025,2.729,2.729,0,0,1,.965.178,2.878,2.878,0,0,1,.8.441h.148V36.127a4.985,4.985,0,0,0-.906-.257,5.433,5.433,0,0,0-1.058-.1,2.977,2.977,0,0,0-1.747.476,1.446,1.446,0,0,0-.68,1.231,1.475,1.475,0,0,0,.3.941,1.991,1.991,0,0,0,.978.6,4.753,4.753,0,0,0,.635.162c.225.042.439.087.641.135a1.054,1.054,0,0,1,.44.2.4.4,0,0,1,.15.306.407.407,0,0,1-.1.3.821.821,0,0,1-.262.169,1.25,1.25,0,0,1-.336.077,3.247,3.247,0,0,1-.332.022A3.071,3.071,0,0,1,1.114,40.2a3.2,3.2,0,0,1-.962-.536H0v1.284a6.075,6.075,0,0,0,.936.3,5.191,5.191,0,0,0,1.173.117,3.054,3.054,0,0,0,1.841-.5,1.539,1.539,0,0,0,.678-1.3,1.36,1.36,0,0,0-.295-.908,1.968,1.968,0,0,0-.912-.553" transform="translate(0 -18.748)"/>
      <path id="패스_219" data-name="패스 219" d="M23.6,38.5a2.249,2.249,0,0,0-1.643.577,2.43,2.43,0,0,0,0,3.17,2.24,2.24,0,0,0,1.646.578,2.241,2.241,0,0,0,1.647-.578,2.436,2.436,0,0,0,0-3.166A2.237,2.237,0,0,0,23.6,38.5m.815,2.784a1.065,1.065,0,0,1-.191.378.636.636,0,0,1-.275.2,1.015,1.015,0,0,1-.707-.006.676.676,0,0,1-.278-.208,1.021,1.021,0,0,1-.182-.4,2.4,2.4,0,0,1-.062-.582,2.307,2.307,0,0,1,.071-.625,1.054,1.054,0,0,1,.19-.391.678.678,0,0,1,.282-.2A1,1,0,0,1,23.6,39.4a.982.982,0,0,1,.352.063.644.644,0,0,1,.28.212,1.1,1.1,0,0,1,.181.391,2.426,2.426,0,0,1,.065.606,2.337,2.337,0,0,1-.063.612" transform="translate(-11.201 -20.178)"/>
      <path id="패스_220" data-name="패스 220" d="M35.066,37.224a3.813,3.813,0,0,0-.482-.2,1.937,1.937,0,0,0-.6-.078,1.781,1.781,0,0,0-.7.15,1.721,1.721,0,0,0-.6.421,2.11,2.11,0,0,0-.412.685,2.582,2.582,0,0,0-.15.916,2.432,2.432,0,0,0,.446,1.538,1.438,1.438,0,0,0,1.191.571,1.64,1.64,0,0,0,.679-.133,2.955,2.955,0,0,0,.632-.408v.423h1.31V35.487h-1.31Zm0,2.774a1.368,1.368,0,0,1-.351.176,1.184,1.184,0,0,1-.375.066.779.779,0,0,1-.661-.27,1.442,1.442,0,0,1-.206-.867,1.387,1.387,0,0,1,.256-.889.93.93,0,0,1,.77-.321,1.67,1.67,0,0,1,.278.026,1.281,1.281,0,0,1,.289.083Z" transform="translate(-16.836 -18.601)"/>
      <path id="패스_221" data-name="패스 221" d="M46.651,38.87a2.918,2.918,0,0,0-1.613-.342,5.949,5.949,0,0,0-.936.074c-.313.049-.537.092-.675.128v.978h.12c.1-.042.28-.1.524-.179a2.279,2.279,0,0,1,.688-.117,1.978,1.978,0,0,1,.811.13.472.472,0,0,1,.276.469v.022q-.577.032-1.114.1a3.108,3.108,0,0,0-.9.231,1.335,1.335,0,0,0-.565.443,1.228,1.228,0,0,0-.2.727,1.184,1.184,0,0,0,.391.914,1.386,1.386,0,0,0,.971.358,2.393,2.393,0,0,0,.453-.04,1.873,1.873,0,0,0,.4-.125,1.988,1.988,0,0,0,.294-.177c.1-.075.191-.138.26-.191V42.7h1.31V39.942a1.211,1.211,0,0,0-.5-1.072m-.813,2.767a1.272,1.272,0,0,1-.358.207,1.126,1.126,0,0,1-.4.078,1.43,1.43,0,0,1-.367-.034.524.524,0,0,1-.2-.105.3.3,0,0,1-.111-.15.818.818,0,0,1-.021-.2.437.437,0,0,1,.1-.305.658.658,0,0,1,.3-.177,2.829,2.829,0,0,1,.473-.088c.208-.024.4-.044.579-.058Z" transform="translate(-22.575 -20.195)"/>
      <path id="패스_222" data-name="패스 222" d="M55.839,38.5a2.355,2.355,0,0,0-1.693.587,2.091,2.091,0,0,0-.618,1.593,1.932,1.932,0,0,0,.652,1.565,2.838,2.838,0,0,0,1.876.55,4.414,4.414,0,0,0,.866-.079,4.8,4.8,0,0,0,.833-.256V41.419H57.61a2.54,2.54,0,0,1-.614.323,2.223,2.223,0,0,1-.8.149,1.619,1.619,0,0,1-.99-.254.941.941,0,0,1-.365-.735H57.83v-.457A1.966,1.966,0,0,0,57.33,39a2.021,2.021,0,0,0-1.492-.5m-1,1.638a.84.84,0,0,1,.271-.63.946.946,0,0,1,.618-.2.776.776,0,0,1,.595.206.93.93,0,0,1,.2.62Z" transform="translate(-28.058 -20.179)"/>
      <path id="패스_223" data-name="패스 223" d="M69.875,38.558a1.612,1.612,0,0,0-.726.188,4.088,4.088,0,0,0-.762.516,1.21,1.21,0,0,0-.483-.525,1.4,1.4,0,0,0-.711-.179,1.551,1.551,0,0,0-.683.148,3.6,3.6,0,0,0-.646.412v-.457h-1.31v4.059h1.31V39.848a2.955,2.955,0,0,1,.327-.164.957.957,0,0,1,.375-.078.936.936,0,0,1,.373.059.4.4,0,0,1,.2.19.9.9,0,0,1,.079.337c.01.139.015.307.015.5v2.024h1.31V39.848a2.462,2.462,0,0,1,.383-.185.937.937,0,0,1,.32-.057.968.968,0,0,1,.378.059.384.384,0,0,1,.2.19.877.877,0,0,1,.079.336c.007.137.011.3.011.5v2.024h1.311V40.084a1.669,1.669,0,0,0-.344-1.133,1.261,1.261,0,0,0-1-.393" transform="translate(-33.837 -20.211)"/>
      <path id="패스_224" data-name="패스 224" d="M83.827,41.661a1.627,1.627,0,0,1-.4.181,1.322,1.322,0,0,1-.374.062,1.006,1.006,0,0,1-.394-.062.417.417,0,0,1-.211-.2.87.87,0,0,1-.094-.339c-.013-.136-.02-.307-.02-.513v-2.02h-1.31v2.646a1.6,1.6,0,0,0,.366,1.143,1.368,1.368,0,0,0,1.045.388,1.679,1.679,0,0,0,.721-.143,3.871,3.871,0,0,0,.666-.418v.443h1.31V38.775h-1.31Z" transform="translate(-42.473 -20.324)"/>
      <path id="패스_225" data-name="패스 225" d="M94.976,38.558a1.736,1.736,0,0,0-.715.145,3.331,3.331,0,0,0-.672.415v-.457h-1.31v4.059h1.31V39.848a2.015,2.015,0,0,1,.4-.184,1.235,1.235,0,0,1,.365-.058,1.009,1.009,0,0,1,.394.062.438.438,0,0,1,.215.195,1.037,1.037,0,0,1,.087.359,4.646,4.646,0,0,1,.026.488v2.011h1.31V40.084a1.573,1.573,0,0,0-.374-1.143,1.379,1.379,0,0,0-1.036-.383" transform="translate(-48.37 -20.211)"/>
      <path id="패스_226" data-name="패스 226" d="M111.764,38.706l-1.221-2.69h-1.631v5.372h1.325v-3.6l1,2.331h.966l1.005-2.331v3.6h1.4V36.016H112.98Z" transform="translate(-57.088 -18.878)"/>
      <path id="패스_227" data-name="패스 227" d="M126.333,41.661a1.642,1.642,0,0,1-.4.181,1.316,1.316,0,0,1-.373.062,1.013,1.013,0,0,1-.395-.062.421.421,0,0,1-.211-.2.879.879,0,0,1-.093-.339c-.013-.136-.02-.307-.02-.513v-2.02h-1.309v2.646a1.6,1.6,0,0,0,.366,1.143,1.367,1.367,0,0,0,1.044.388,1.674,1.674,0,0,0,.721-.143,3.857,3.857,0,0,0,.667-.418v.443h1.31V38.775h-1.31Z" transform="translate(-64.753 -20.324)"/>
      <path id="패스_228" data-name="패스 228" d="M137.009,40.3q-.233-.058-.463-.1c-.152-.025-.3-.051-.428-.078a1.335,1.335,0,0,1-.461-.152.264.264,0,0,1-.1-.22q0-.151.217-.232a1.5,1.5,0,0,1,.531-.082,2.453,2.453,0,0,1,.754.119,2.739,2.739,0,0,1,.663.309h.112V38.847a3.56,3.56,0,0,0-.658-.2,4.141,4.141,0,0,0-.881-.092,2.651,2.651,0,0,0-1.532.389,1.152,1.152,0,0,0-.56.973,1.107,1.107,0,0,0,.269.761,1.59,1.59,0,0,0,.821.45,4.4,4.4,0,0,0,.452.092c.165.025.3.049.393.07a1.433,1.433,0,0,1,.413.128.231.231,0,0,1,.109.215.258.258,0,0,1-.185.237,1.519,1.519,0,0,1-.567.08,2.465,2.465,0,0,1-.551-.058,3.076,3.076,0,0,1-.459-.135,2.412,2.412,0,0,1-.363-.167c-.087-.052-.162-.1-.227-.143h-.119v1.064a3.8,3.8,0,0,0,.713.223,4.481,4.481,0,0,0,.989.1,2.735,2.735,0,0,0,1.554-.384,1.174,1.174,0,0,0,.568-1.013,1.067,1.067,0,0,0-.246-.717,1.448,1.448,0,0,0-.76-.421" transform="translate(-70.339 -20.211)"/>
      <path id="패스_229" data-name="패스 229" d="M145.76,38.5a2.353,2.353,0,0,0-1.693.587,2.092,2.092,0,0,0-.618,1.593,1.934,1.934,0,0,0,.652,1.565,2.837,2.837,0,0,0,1.876.55,4.416,4.416,0,0,0,.867-.079,4.81,4.81,0,0,0,.833-.256V41.419h-.145a2.535,2.535,0,0,1-.615.323,2.213,2.213,0,0,1-.8.149,1.62,1.62,0,0,1-.991-.254.941.941,0,0,1-.365-.735h2.991v-.457a1.966,1.966,0,0,0-.5-1.446,2.021,2.021,0,0,0-1.492-.5m-1,1.638a.839.839,0,0,1,.27-.63.946.946,0,0,1,.617-.2.776.776,0,0,1,.6.206.925.925,0,0,1,.2.62Z" transform="translate(-75.191 -20.179)"/>
      <path id="패스_230" data-name="패스 230" d="M157.178,41.661a1.644,1.644,0,0,1-.4.181,1.32,1.32,0,0,1-.374.062,1.012,1.012,0,0,1-.394-.062.419.419,0,0,1-.211-.2.9.9,0,0,1-.094-.339c-.011-.136-.02-.307-.02-.513v-2.02h-1.31v2.646a1.6,1.6,0,0,0,.367,1.143,1.367,1.367,0,0,0,1.044.388,1.679,1.679,0,0,0,.722-.143,3.906,3.906,0,0,0,.666-.418v.443h1.31V38.775h-1.31Z" transform="translate(-80.921 -20.324)"/>
      <path id="패스_231" data-name="패스 231" d="M170.952,38.558a1.608,1.608,0,0,0-.726.188,4.089,4.089,0,0,0-.762.516,1.223,1.223,0,0,0-.482-.525,1.4,1.4,0,0,0-.712-.179,1.55,1.55,0,0,0-.683.148,3.608,3.608,0,0,0-.647.412v-.457h-1.309v4.059h1.309V39.848a3.013,3.013,0,0,1,.328-.164.957.957,0,0,1,.374-.078.936.936,0,0,1,.374.059.394.394,0,0,1,.2.19.884.884,0,0,1,.08.337c.01.139.015.307.015.5v2.024h1.31V39.848a2.46,2.46,0,0,1,.383-.185.935.935,0,0,1,.319-.057.971.971,0,0,1,.38.059.388.388,0,0,1,.2.19.869.869,0,0,1,.079.336c.007.137.012.3.012.5v2.024h1.31V40.084a1.673,1.673,0,0,0-.343-1.133,1.262,1.262,0,0,0-1-.393" transform="translate(-86.819 -20.211)"/>
      <path id="패스_232" data-name="패스 232" d="M189.16,38.5a2.25,2.25,0,0,0-1.643.577,2.43,2.43,0,0,0,0,3.17,2.633,2.633,0,0,0,3.293,0,2.436,2.436,0,0,0,0-3.166,2.238,2.238,0,0,0-1.649-.581m.814,2.784a1.071,1.071,0,0,1-.189.378.644.644,0,0,1-.275.2.982.982,0,0,1-.34.06.97.97,0,0,1-.368-.067.682.682,0,0,1-.278-.208,1.028,1.028,0,0,1-.181-.4,2.423,2.423,0,0,1-.062-.582,2.365,2.365,0,0,1,.071-.625,1.054,1.054,0,0,1,.191-.391.673.673,0,0,1,.281-.2,1,1,0,0,1,.336-.052.981.981,0,0,1,.351.063.645.645,0,0,1,.28.212,1.1,1.1,0,0,1,.181.391,2.384,2.384,0,0,1,.064.606,2.3,2.3,0,0,1-.063.612" transform="translate(-97.981 -20.178)"/>
      <path id="패스_233" data-name="패스 233" d="M199.477,35.424a1.728,1.728,0,0,0-1.211.371,1.445,1.445,0,0,0-.4,1.112v.111H197.3V37.9h.565v3.174h1.311V37.9h.982v-.886h-1.027v-.032a.744.744,0,0,1,.138-.525.761.761,0,0,1,.526-.137,1.382,1.382,0,0,1,.3.032c.093.021.17.04.229.057h.1V35.5c-.124-.021-.263-.039-.422-.051s-.334-.021-.529-.021" transform="translate(-103.419 -18.568)"/>
      <path id="패스_234" data-name="패스 234" d="M214.056,39.093l-1.989-3.078h-1.673v5.372h1.28V37.7l2.316,3.688h1.345V36.015h-1.28Z" transform="translate(-110.282 -18.878)"/>
      <path id="패스_235" data-name="패스 235" d="M226.485,38.87a2.925,2.925,0,0,0-1.614-.342,5.941,5.941,0,0,0-.935.074c-.313.049-.537.092-.675.128v.978h.12c.1-.042.28-.1.523-.179a2.281,2.281,0,0,1,.688-.117,1.977,1.977,0,0,1,.812.13.472.472,0,0,1,.275.469v.022q-.577.032-1.112.1a3.106,3.106,0,0,0-.9.231,1.342,1.342,0,0,0-.566.443,1.22,1.22,0,0,0-.2.727,1.181,1.181,0,0,0,.392.914,1.385,1.385,0,0,0,.971.358,2.378,2.378,0,0,0,.452-.04,1.86,1.86,0,0,0,.4-.125,2.013,2.013,0,0,0,.294-.177c.1-.075.19-.138.261-.191V42.7h1.31V39.942a1.211,1.211,0,0,0-.5-1.072m-.814,2.767a1.287,1.287,0,0,1-.357.207,1.129,1.129,0,0,1-.4.078,1.435,1.435,0,0,1-.367-.034.541.541,0,0,1-.2-.105.3.3,0,0,1-.11-.15.733.733,0,0,1-.022-.2.438.438,0,0,1,.1-.305.648.648,0,0,1,.3-.177,2.872,2.872,0,0,1,.474-.088c.207-.024.4-.044.579-.058Z" transform="translate(-116.839 -20.195)"/>
      <path id="패스_236" data-name="패스 236" d="M234.864,36.325h-1.31V37.49h-.535v.886h.535v1.892a1.288,1.288,0,0,0,.372,1.048,1.766,1.766,0,0,0,1.135.306,4.657,4.657,0,0,0,.577-.03,3.713,3.713,0,0,0,.447-.084V40.62h-.108a1.086,1.086,0,0,1-.23.077,1.177,1.177,0,0,1-.266.041.754.754,0,0,1-.376-.074.392.392,0,0,1-.178-.2.793.793,0,0,1-.059-.284c0-.107,0-.23,0-.371V38.376h1.221V37.49h-1.221Z" transform="translate(-122.141 -19.04)"/>
      <path id="패스_237" data-name="패스 237" d="M243.826,41.661a1.652,1.652,0,0,1-.4.181,1.319,1.319,0,0,1-.373.062,1.016,1.016,0,0,1-.4-.062.42.42,0,0,1-.211-.2.879.879,0,0,1-.092-.339c-.014-.136-.021-.307-.021-.513v-2.02h-1.31v2.646a1.6,1.6,0,0,0,.367,1.143,1.365,1.365,0,0,0,1.043.388,1.679,1.679,0,0,0,.721-.143,3.89,3.89,0,0,0,.667-.418v.443h1.31V38.775h-1.31Z" transform="translate(-126.339 -20.324)"/>
      <path id="패스_238" data-name="패스 238" d="M254.931,38.774a1.775,1.775,0,0,0-.59.114,2.585,2.585,0,0,0-.753.482v-.6h-1.309v4.059h1.309V40.128a2.817,2.817,0,0,1,.462-.122,2.967,2.967,0,0,1,.494-.036c.082,0,.186.005.31.015a1.163,1.163,0,0,1,.269.045h.116v-1.24c-.043-.005-.1-.009-.153-.01s-.109,0-.156,0" transform="translate(-132.237 -20.324)"/>
      <path id="패스_239" data-name="패스 239" d="M263.018,38.87a2.918,2.918,0,0,0-1.613-.342,5.968,5.968,0,0,0-.937.074c-.313.049-.536.092-.675.128v.978h.12c.106-.042.281-.1.524-.179a2.283,2.283,0,0,1,.689-.117,1.98,1.98,0,0,1,.811.13.474.474,0,0,1,.276.469v.022q-.577.032-1.112.1a3.113,3.113,0,0,0-.9.231,1.338,1.338,0,0,0-.565.443,1.227,1.227,0,0,0-.2.727,1.183,1.183,0,0,0,.391.914,1.386,1.386,0,0,0,.972.358,2.378,2.378,0,0,0,.452-.04,1.851,1.851,0,0,0,.4-.125,2.011,2.011,0,0,0,.294-.177c.1-.075.19-.138.261-.191V42.7h1.309V39.942a1.21,1.21,0,0,0-.5-1.072m-.813,2.767a1.293,1.293,0,0,1-.358.207,1.131,1.131,0,0,1-.4.078,1.413,1.413,0,0,1-.365-.034.531.531,0,0,1-.2-.105.309.309,0,0,1-.109-.15.752.752,0,0,1-.022-.2.438.438,0,0,1,.1-.305.641.641,0,0,1,.3-.177,2.824,2.824,0,0,1,.472-.088c.208-.024.4-.044.58-.058Z" transform="translate(-135.989 -20.195)"/>
      <rect id="사각형_38" data-name="사각형 38" width="1.309" height="5.623" transform="translate(128.723 16.886)"/>
      <path id="패스_240" data-name="패스 240" d="M284.835,37.978h-2.084V36.016h-1.4v5.372h1.4V39.011h2.084v2.376h1.4V36.016h-1.4Z" transform="translate(-147.476 -18.878)"/>
      <rect id="사각형_39" data-name="사각형 39" width="1.31" height="4.059" transform="translate(140.056 18.45)"/>
      <rect id="사각형_40" data-name="사각형 40" width="1.369" height="0.989" transform="translate(140.026 16.886)"/>
      <path id="패스_241" data-name="패스 241" d="M301.917,40.3c-.155-.039-.308-.07-.463-.1s-.3-.051-.428-.078a1.32,1.32,0,0,1-.461-.152.264.264,0,0,1-.1-.22c0-.1.071-.177.216-.232a1.487,1.487,0,0,1,.531-.082,2.446,2.446,0,0,1,.753.119,2.741,2.741,0,0,1,.665.309h.112V38.847a3.663,3.663,0,0,0-.659-.2,4.166,4.166,0,0,0-.882-.092,2.651,2.651,0,0,0-1.532.389,1.151,1.151,0,0,0-.56.973,1.1,1.1,0,0,0,.269.761,1.6,1.6,0,0,0,.82.45,4.407,4.407,0,0,0,.453.092c.164.025.3.049.393.07a1.419,1.419,0,0,1,.412.128.231.231,0,0,1,.11.215.258.258,0,0,1-.186.237,1.515,1.515,0,0,1-.567.08,2.483,2.483,0,0,1-.551-.058,3.174,3.174,0,0,1-.46-.135,2.553,2.553,0,0,1-.363-.167c-.086-.052-.161-.1-.226-.143H299.1v1.064a3.787,3.787,0,0,0,.713.223,4.486,4.486,0,0,0,.99.1,2.736,2.736,0,0,0,1.554-.384,1.174,1.174,0,0,0,.568-1.013,1.065,1.065,0,0,0-.245-.717,1.452,1.452,0,0,0-.761-.421" transform="translate(-156.778 -20.211)"/>
      <path id="패스_242" data-name="패스 242" d="M309.858,36.325h-1.309V37.49h-.536v.886h.536v1.892a1.288,1.288,0,0,0,.372,1.048,1.762,1.762,0,0,0,1.135.306,4.644,4.644,0,0,0,.576-.03,3.7,3.7,0,0,0,.448-.084V40.62h-.109a1.093,1.093,0,0,1-.231.077,1.155,1.155,0,0,1-.265.041.743.743,0,0,1-.374-.074.39.39,0,0,1-.179-.2.746.746,0,0,1-.059-.284q0-.16,0-.371V38.376h1.221V37.49h-1.221Z" transform="translate(-161.451 -19.04)"/>
      <path id="패스_243" data-name="패스 243" d="M317.724,38.5a2.252,2.252,0,0,0-1.644.577,2.43,2.43,0,0,0,0,3.17,2.633,2.633,0,0,0,3.292,0,2.439,2.439,0,0,0,0-3.166,2.239,2.239,0,0,0-1.65-.581m.815,2.784a1.08,1.08,0,0,1-.19.378.632.632,0,0,1-.276.2,1.014,1.014,0,0,1-.707-.006.672.672,0,0,1-.277-.208,1.028,1.028,0,0,1-.183-.4,2.446,2.446,0,0,1-.062-.582,2.3,2.3,0,0,1,.072-.625,1.047,1.047,0,0,1,.19-.391.667.667,0,0,1,.282-.2,1,1,0,0,1,.335-.052.982.982,0,0,1,.352.063.647.647,0,0,1,.28.212,1.079,1.079,0,0,1,.181.391,2.354,2.354,0,0,1,.066.606,2.309,2.309,0,0,1-.064.612" transform="translate(-165.37 -20.178)"/>
      <path id="패스_244" data-name="패스 244" d="M329.52,38.774a1.764,1.764,0,0,0-.59.114,2.571,2.571,0,0,0-.753.482v-.6h-1.31v4.059h1.31V40.128a2.788,2.788,0,0,1,.462-.122,2.968,2.968,0,0,1,.494-.036c.082,0,.185.005.309.015a1.159,1.159,0,0,1,.27.045h.117v-1.24c-.042-.005-.094-.009-.153-.01s-.109,0-.156,0" transform="translate(-171.333 -20.324)"/>
      <path id="패스_245" data-name="패스 245" d="M336.85,38.774l-.93,2.609-.974-2.609h-1.392l1.6,4.031-.652,1.519h1.425l2.277-5.55Z" transform="translate(-174.839 -20.324)"/>
      <path id="패스_246" data-name="패스 246" d="M3.68.631.016,8.46H1.894L4.369,3.137,6.843,8.46H8.721L5.089.631Z" transform="translate(-0.008 -0.33)"/>
      <path id="패스_247" data-name="패스 247" d="M21.007,13.543h1.951V.631H21.007V2.864H18.627V4.545h2.381Z" transform="translate(-9.764 -0.33)"/>
      <path id="패스_248" data-name="패스 248" d="M57.287,5.945h1.561v7.588H60.8V.631H58.848V4.263H57.287V.631H55.335v12.9h1.951Z" transform="translate(-29.005 -0.33)"/>
      <path id="패스_249" data-name="패스 249" d="M83.22,3.843a1.533,1.533,0,0,1-1.473,1.68h9.369V.631H80.19V3.782a1.523,1.523,0,0,1,1.95-1.246V2.311h7.023V3.843" transform="translate(-42.033 -0.331)"/>
      <path id="패스_250" data-name="패스 250" d="M77.393,14.929h6.013v1.816h1.951V14.929h5.762V13.248H77.393Z" transform="translate(-40.567 -6.944)"/>
      <path id="패스_251" data-name="패스 251" d="M122.936,2.317h2.6V.636h-8.144V2.317h2.6l-2.88,6.169h1.941l2.412-5.2,2.412,5.2h1.941Z" transform="translate(-61.387 -0.333)"/>
      <path id="패스_252" data-name="패스 252" d="M142.281,4.536h1.409V2.855h-1.409V.631H140.33v12.9h1.951Z" transform="translate(-73.556 -0.33)"/>
      <path id="패스_253" data-name="패스 253" d="M160.051,7.085a3.593,3.593,0,0,0,2.6-1.033,3.4,3.4,0,0,0,1.067-2.54,3.331,3.331,0,0,0-1.067-2.48,3.78,3.78,0,0,0-5.191,0,3.332,3.332,0,0,0-1.066,2.48,3.4,3.4,0,0,0,1.066,2.54,3.6,3.6,0,0,0,2.6,1.033m-1.2-4.854a1.585,1.585,0,0,1,2.4,0,1.844,1.844,0,0,1,.511,1.3,1.881,1.881,0,0,1-.511,1.328,1.585,1.585,0,0,1-2.4,0,1.881,1.881,0,0,1-.51-1.328,1.843,1.843,0,0,1,.51-1.3" transform="translate(-81.974 0)"/>
      <path id="패스_254" data-name="패스 254" d="M177.05,1.581h-2.663v1.68h2.663v.991h-2.663V5.933h2.663V8.469H179V.609H177.05Z" transform="translate(-91.408 -0.319)"/>
      <path id="패스_255" data-name="패스 255" d="M220.459,4.545h1.409V2.864h-1.409V.63h-1.951V13.3h1.951Z" transform="translate(-114.535 -0.33)"/>
      <path id="패스_256" data-name="패스 256" d="M203.994,8.46,200.363.631h-1.41L195.288,8.46h1.881l2.474-5.323,2.474,5.323Z" transform="translate(-102.364 -0.331)"/>
      <path id="패스_257" data-name="패스 257" d="M259.544,3.947h1.408V2.266h-1.408V.606h-1.952V7.737h1.952Z" transform="translate(-135.021 -0.317)"/>
      <path id="패스_258" data-name="패스 258" d="M249.081,22.339V17.026H237.63v1.681h9.5v3.632Z" transform="translate(-124.558 -8.924)"/>
      <path id="패스_259" data-name="패스 259" d="M325.661,3.972h1.421V2.292h-1.409V.631h-1.951V6.073H317.3V4.257h-1.95V6.073h-2.537v1.68h12.85Z" transform="translate(-163.966 -0.331)"/>
      <path id="패스_260" data-name="패스 260" d="M319.473,4.868h1.95V.652H313.41v1.68h6.063Z" transform="translate(-164.28 -0.341)"/>
      <path id="패스_261" data-name="패스 261" d="M41.222,8.2c.062,0,.123.009.186.009s.125,0,.186-.009h4.26V6.515h-3.67a1.083,1.083,0,0,1-.934-.911V2.312h4.6V.631H39.3v5.22a2.092,2.092,0,0,0,0,.463A2.123,2.123,0,0,0,41.222,8.2" transform="translate(-20.592 -0.331)"/>
      <path id="패스_262" data-name="패스 262" d="M83.312,10.916c.015,0,.03,0,.047,0h-.093c.016,0,.03,0,.047,0" transform="translate(-43.645 -5.719)"/>
      <path id="패스_263" data-name="패스 263" d="M80.17,7.254a1.412,1.412,0,0,0-.018.217,1.394,1.394,0,0,0,.018.215Z" transform="translate(-42.013 -3.802)"/>
      <path id="패스_264" data-name="패스 264" d="M84.289,6.737v.306h.354a.545.545,0,0,1-.354-.306" transform="translate(-44.182 -3.531)"/>
      <path id="패스_265" data-name="패스 265" d="M81.654,7.55h.093A1.533,1.533,0,0,0,83.22,5.87H82.79a.544.544,0,0,1-.149.023.539.539,0,0,1-.147-.023H82.14V5.563a.544.544,0,0,1,0-.439V4.564a1.523,1.523,0,0,0-1.95,1.246v.432A1.523,1.523,0,0,0,81.654,7.55" transform="translate(-42.033 -2.357)"/>
      <path id="패스_266" data-name="패스 266" d="M84.191,6.034a.536.536,0,0,0,.047.219V5.815a.538.538,0,0,0-.047.219" transform="translate(-44.13 -3.048)"/>
      <path id="패스_267" data-name="패스 267" d="M85.18,7.4a.541.541,0,0,0,.148-.023h-.3a.545.545,0,0,0,.147.023" transform="translate(-44.572 -3.869)"/>
      <path id="패스_268" data-name="패스 268" d="M82.838,21.54h0v-.005l-.023.005h-.236a.549.549,0,0,1-.426-.534l-.006-.32V19.159H80.19v3.016a1.362,1.362,0,0,0,1.086,1.045h9.839V21.54Z" transform="translate(-42.033 -10.042)"/>
      <path id="패스_269" data-name="패스 269" d="M163.728,21.223h-.786a.663.663,0,0,1-.394-.4V17.841H160.6v3.283a1.382,1.382,0,0,0,0,.434,1.573,1.573,0,0,0,1.364,1.346,1.472,1.472,0,0,0,.2.014,1.526,1.526,0,0,0,.2-.014h9.409v-1.68Z" transform="translate(-84.171 -9.351)"/>
      <path id="패스_270" data-name="패스 270" d="M319.037,21.735h-.786a.661.661,0,0,1-.394-.4v-2.5h-1.95v2.8a1.4,1.4,0,0,0-.018.216,1.43,1.43,0,0,0,.018.217,1.573,1.573,0,0,0,1.361,1.345,1.437,1.437,0,0,0,.2.014,1.415,1.415,0,0,0,.2-.014h9.41V21.735Z" transform="translate(-165.579 -9.872)"/>
      <path id="패스_271" data-name="패스 271" d="M286.687,12.878V11.2h-13.6v1.68h5.764v.72h-4.564V15.28h8.976v.42h-6.925c-.042,0-.084-.006-.127-.006s-.085,0-.128.006h-1.8v1.735c0,.063-.009.127-.009.191s0,.128.009.19a1.936,1.936,0,0,0,1.688,1.727,2.138,2.138,0,0,0,.236.015,2.1,2.1,0,0,0,.235-.015h8.769V17.862h-8.755a.242.242,0,0,1-.22-.239v-.242h8.976V13.6H280.8v-.72Z" transform="translate(-143.144 -5.869)"/>
      <path id="패스_272" data-name="패스 272" d="M241.04,1.356V2.734h-4.352V1.356h-1.951V5.762a1.748,1.748,0,0,0-.02.246,1.73,1.73,0,0,0,.02.245,1.8,1.8,0,0,0,1.694,1.555c.031,0,.06,0,.091,0s.061,0,.09,0h6.379V1.356Zm0,4.77h-3.7a.819.819,0,0,1-.649-.593V4.414h4.352Z" transform="translate(-123.031 -0.711)"/>
      <path id="패스_273" data-name="패스 273" d="M275.611,1.419V4.256a1.568,1.568,0,0,0,1.255,1.215h9.673V1.419Zm8.976,2.371h-6.553a.337.337,0,0,1-.116.021.344.344,0,0,1-.116-.021.355.355,0,0,1-.239-.334V3.1h7.024Z" transform="translate(-144.467 -0.744)"/>
      <path id="패스_274" data-name="패스 274" d="M280.332,6.422a.337.337,0,0,0,.116-.021h-.232a.344.344,0,0,0,.116.021" transform="translate(-146.88 -3.355)"/>
    </g>
  </g>
</svg>
