<svg xmlns="http://www.w3.org/2000/svg" width="13.637" height="12.209" viewBox="0 0 13.637 12.209">
  <g id="link_icon" data-name="link icon" transform="translate(-721.18 -88.254) rotate(45)">
    <g id="그룹_65" data-name="그룹 65">
      <path id="패스_44" data-name="패스 44" d="M583.409-450.091v-2.292a1.909,1.909,0,0,1,1.9-1.9h0a1.909,1.909,0,0,1,1.9,1.9v3.651a1.909,1.909,0,0,1-1.9,1.9h0a1.906,1.906,0,0,1-1.577-.841" transform="translate(-3.313 0)" fill="none" stroke="#f1cb78" stroke-linecap="round" stroke-miterlimit="10" stroke-width="1"/>
      <path id="패스_45" data-name="패스 45" d="M582.893-429.574v2.292a1.909,1.909,0,0,1-1.9,1.9h0a1.909,1.909,0,0,1-1.9-1.9v-3.651a1.909,1.909,0,0,1,1.9-1.9h0a1.906,1.906,0,0,1,1.577.841" transform="translate(0 -16.438)" fill="none" stroke="#f1cb78" stroke-linecap="round" stroke-miterlimit="10" stroke-width="1"/>
    </g>
  </g>
</svg>
